<?xml version="1.0" encoding="UTF-8" standalone="no"?>
<!-- Created with Inkscape (http://www.inkscape.org/) -->

<svg
   xmlns:svg="http://www.w3.org/2000/svg"
   xmlns="http://www.w3.org/2000/svg"
   version="1.1"
   width="210mm"
   height="297mm"
   id="svg4227">
  <defs
     id="defs4229" />
  <g
     id="layer1">
    <path
       d="m 374.42908,230.10549 c -173.27286,0 -313.844258,140.57119 -313.844258,313.84426 0,173.27306 140.571398,313.52626 313.844258,313.52626 173.27283,0 313.84425,-140.2532 313.84425,-313.52626 0,-173.27307 -140.57142,-313.84426 -313.84425,-313.84426 z m -1.27192,54.37424 c 61.70535,0 118.18247,21.69443 162.80472,57.554 -59.97435,24.44971 -105.50736,77.30325 -119.87769,141.81818 l -74.72483,0 104.61475,104.61475 104.93272,-104.61475 -76.3147,0 c 14.93887,-48.55163 54.53013,-86.44778 104.29674,-98.25519 34.18835,44.06686 54.69227,99.21085 54.69227,159.30696 0,143.83695 -116.58747,260.42396 -260.42398,260.42396 -53.11025,0 -102.54346,-15.63384 -143.72604,-42.92703 62.49616,-23.47766 110.19041,-77.39533 124.96534,-143.72604 l 74.72482,0 -104.61475,-104.61475 -104.93273,104.61475 76.31472,0 c -16.11767,52.38221 -61.05513,92.27741 -116.37994,100.48104 -41.57585,-46.14863 -66.77537,-107.241 -66.77537,-174.25193 0,-143.83593 116.58741,-260.42395 260.42395,-260.42395 z"
       id="path3875-3"
       style="fill:#555555;fill-opacity:1;stroke:none" />
  </g>
</svg>
